<svg xmlns="http://www.w3.org/2000/svg" viewBox="0 0 80 80" fill="none">
  <circle cx="40" cy="40" r="24" stroke="#E8563A" stroke-width="2.5"/>
  <path d="M28 18 C32 28, 32 52, 28 62" stroke="#E8563A" stroke-width="1.5" fill="none" stroke-linecap="round"/>
  <path d="M52 18 C48 28, 48 52, 52 62" stroke="#E8563A" stroke-width="1.5" fill="none" stroke-linecap="round"/>
  <line x1="29" y1="24" x2="32" y2="26" stroke="#E8563A" stroke-width="1.2" stroke-linecap="round"/>
  <line x1="29" y1="30" x2="32" y2="32" stroke="#E8563A" stroke-width="1.2" stroke-linecap="round"/>
  <line x1="29" y1="36" x2="31.5" y2="37.5" stroke="#E8563A" stroke-width="1.2" stroke-linecap="round"/>
  <line x1="29" y1="42" x2="31.5" y2="42.5" stroke="#E8563A" stroke-width="1.2" stroke-linecap="round"/>
  <line x1="29" y1="48" x2="32" y2="48" stroke="#E8563A" stroke-width="1.2" stroke-linecap="round"/>
  <line x1="29" y1="54" x2="32" y2="53" stroke="#E8563A" stroke-width="1.2" stroke-linecap="round"/>
  <line x1="51" y1="24" x2="48" y2="26" stroke="#E8563A" stroke-width="1.2" stroke-linecap="round"/>
  <line x1="51" y1="30" x2="48" y2="32" stroke="#E8563A" stroke-width="1.2" stroke-linecap="round"/>
  <line x1="51" y1="36" x2="48.5" y2="37.5" stroke="#E8563A" stroke-width="1.2" stroke-linecap="round"/>
  <line x1="51" y1="42" x2="48.5" y2="42.5" stroke="#E8563A" stroke-width="1.2" stroke-linecap="round"/>
  <line x1="51" y1="48" x2="48" y2="48" stroke="#E8563A" stroke-width="1.2" stroke-linecap="round"/>
  <line x1="51" y1="54" x2="48" y2="53" stroke="#E8563A" stroke-width="1.2" stroke-linecap="round"/>
</svg>
