<svg xmlns="http://www.w3.org/2000/svg" viewBox="0 0 80 80" fill="none">
  <!-- Cap -->
  <path d="M26 32 C26 22, 54 22, 54 32 L54 34 C54 34, 40 30, 26 34 Z" fill="#E8563A" opacity="0.8"/>
  <path d="M22 33 L38 28" stroke="#E8563A" stroke-width="2" stroke-linecap="round"/>
  <!-- Head -->
  <circle cx="40" cy="36" r="10" stroke="#E8563A" stroke-width="2"/>
  <!-- Body -->
  <path d="M30 46 C30 44, 50 44, 50 46 L53 62 C53 64, 27 64, 27 62 Z" stroke="#E8563A" stroke-width="2" fill="none"/>
  <!-- Bat -->
  <line x1="55" y1="28" x2="65" y2="18" stroke="#E8563A" stroke-width="2.5" stroke-linecap="round"/>
  <line x1="65" y1="18" x2="68" y2="15" stroke="#E8563A" stroke-width="3.5" stroke-linecap="round"/>
  <!-- Star -->
  <polygon points="40,50 41.5,53 45,53.5 42.5,56 43,59.5 40,58 37,59.5 37.5,56 35,53.5 38.5,53" fill="#E8563A" opacity="0.6"/>
</svg>
